<svg xmlns="http://www.w3.org/2000/svg" viewBox="0 0 151.79 187.89"><defs><style>.a{fill:#fff;}</style></defs><path class="a" d="M112.91,139.84c-2-.05-3.19,1.3-3.24,3.84s0,4.9,0,7.46H6.56c0-.84-.1-1.47-.1-2.1q0-65,0-130.08c0-7.4,5.26-12.57,12.71-12.57q38.87,0,77.73,0c7.42,0,12.6,5.14,12.72,12.6.08,4.94,0,9.88,0,14.83,0,3.66,0,7.33,0,11a2.93,2.93,0,0,0,3.12,3.2c2,0,3-1.22,3.22-3.14a15.48,15.48,0,0,0,0-1.67q0-11.6,0-23.19c0-12.07-7.82-20-19.84-20q-38,0-76.06,0a24.92,24.92,0,0,0-5.46.46C5.54,2.54,0,10,0,20.18Q0,93.95,0,167.72a25,25,0,0,0,.61,5.92c2.16,8.81,9.38,14.2,19.05,14.22q33.74.06,67.45,0c4.15,0,8.3.12,12.43-.17A17.47,17.47,0,0,0,116,170.37c.1-8.85,0-17.7,0-26.55C116,141.3,114.89,139.89,112.91,139.84Zm-3.8,33.76c-.55,4.62-5.53,7.77-11,7.87s-10.68,0-16,0H19.93c-8.52,0-13.47-5-13.47-13.5V157.69H109.25C109.25,163,109.73,168.38,109.11,173.6Z"/><path class="a" d="M112.19,55a38.91,38.91,0,1,0,1.21,77.82c21.39-.36,38.75-18.12,38.38-39.28A39,39,0,0,0,112.19,55Zm.72,71.46a32.55,32.55,0,1,1,32.44-32.61A32.53,32.53,0,0,1,112.91,126.49Z"/><path class="a" d="M50.48,18.7c-2.06,0-3.34,1-3.48,3.09-.12,1.9,1.32,3.2,3.58,3.25,2.54.05,5.08,0,7.63,0,2.38,0,4.76,0,7.15,0s3.72-1.29,3.77-3.12-1.36-3.18-3.63-3.2C60.49,18.67,55.49,18.7,50.48,18.7Z"/><path class="a" d="M58.09,162.73a6.79,6.79,0,1,0,6.78,6.84A6.84,6.84,0,0,0,58.09,162.73Z"/><path class="a" d="M117.43,71.07a4.27,4.27,0,0,0-6.5-.71,3.83,3.83,0,0,0-.68.71L96.05,90.92a3.91,3.91,0,0,0,6.37,4.55l7.39-10.32v29.06a3.92,3.92,0,1,0,7.83,0V84.82l7.62,10.65a3.91,3.91,0,1,0,6.37-4.55Z"/></svg>