<svg xmlns="http://www.w3.org/2000/svg" width="366.55" height="57" viewBox="0 0 366.55 57">
  <defs>
    <style>
      .\32 0c4e387-b17a-4beb-9c57-a00229bacec6 {
        font-size: 49.1px;
        font-family: Rockwell-Regular, Rockwell;
      }

      .\32 0c4e387-b17a-4beb-9c57-a00229bacec6, .\34 5c7cd00-ff2e-4e3d-b44b-5969b93ad781 {
        fill: #fff;
      }

      .\33 6e046c4-87f3-4b53-b596-48985062d737 {
        letter-spacing: -0.06em;
      }
    </style>
  </defs>
  <title>logo</title>
  <g id="aa78f30a-814d-441c-bd4b-7194ce62d8ae" data-name="Layer 2">
    <g id="cbeb77e0-5cd4-4371-8aa3-85eea2c4a906" data-name="Layer 1">
      <text class="20c4e387-b17a-4beb-9c57-a00229bacec6" transform="translate(53.99 42.61)">P<tspan class="36e046c4-87f3-4b53-b596-48985062d737" x="30.35" y="0">r</tspan><tspan x="49.65" y="0">epaidPoint</tspan></text>
      <path class="45c7cd00-ff2e-4e3d-b44b-5969b93ad781" d="M19.77,1.65A19.77,19.77,0,0,0,5.52,35.12l0,0L19.69,50.65,33.17,36a19.77,19.77,0,0,0-13.4-34.3ZM15.9,33.2a1.59,1.59,0,0,1-2.19.73,14.36,14.36,0,0,1-5.78-5.17A14.82,14.82,0,0,1,5.74,21.1a14.19,14.19,0,0,1,2.19-7.61,14.39,14.39,0,0,1,5.78-5.17,1.49,1.49,0,0,1,2.13.92,1.59,1.59,0,0,1-.73,2.19,11.21,11.21,0,0,0-4.44,4,10.88,10.88,0,0,0,0,11.68,11.21,11.21,0,0,0,4.44,4A1.58,1.58,0,0,1,15.9,33.2ZM18.28,28a1.57,1.57,0,0,1-2.19.79,8.47,8.47,0,0,1-3.59-3.16,8.9,8.9,0,0,1-.06-9.49A8.82,8.82,0,0,1,16,13a1.72,1.72,0,0,1,2.2.67,1.64,1.64,0,0,1-.74,2.25,5.41,5.41,0,0,0-3,4.93,5.54,5.54,0,0,0,3.11,5A1.59,1.59,0,0,1,18.28,28Zm-1.52-6.87a3,3,0,1,1,3,3A3,3,0,0,1,16.76,21.16Zm4.62,7A1.57,1.57,0,0,1,22.17,26a5.55,5.55,0,0,0,3.1-5,5.39,5.39,0,0,0-3-4.93,1.67,1.67,0,1,1,1.52-3,8.85,8.85,0,0,1,3.53,3.16,8.9,8.9,0,0,1-.06,9.49,8.56,8.56,0,0,1-3.59,3.17A1.63,1.63,0,0,1,21.38,28.16Zm10.34.73a14.44,14.44,0,0,1-5.78,5.17,1.86,1.86,0,0,1-2.25-.86A1.58,1.58,0,0,1,24.48,31a10.9,10.9,0,0,0,6.15-9.79,10.9,10.9,0,0,0-6.15-9.79,1.59,1.59,0,0,1-.73-2.19,1.64,1.64,0,0,1,2.19-.73,14.16,14.16,0,0,1,8,12.77A14.42,14.42,0,0,1,31.72,28.89Z"/>
    </g>
  </g>
</svg>
