<svg xmlns="http://www.w3.org/2000/svg" viewBox="0 0 298.14 184.01"><defs><style>.a{fill:#fff;}</style></defs><path class="a" d="M65.43,92.62c2.08-1,4.06-1.94,6-2.9a1.23,1.23,0,0,1,1.68.28,2,2,0,0,1,.21,1.47c-.08.33-.56.62-.92.8-1.9,1-3.82,1.85-5.78,2.79l1.18,2.46.81-.38,5.07-2.44a1.4,1.4,0,0,1,2.05.52,1.39,1.39,0,0,1-.85,1.93L69.09,100c.63,2.78,2.81,3.39,4.66,2.33,1.35-.78,2.8-1.38,4.22-2a2.79,2.79,0,0,0,1.68-2.29,2.73,2.73,0,1,1,5.4.74A7.9,7.9,0,0,1,80.57,105a47.13,47.13,0,0,1-6.28,2.85,8,8,0,0,1-9.64-4.27c-.19-.38-.37-.76-.57-1.19-1.08.34-2.3,1.47-3-.13s.86-1.8,1.79-2.38l-1.17-2.44c-.39.19-.78.4-1.19.57a1.36,1.36,0,0,1-1.2-2.44c.37-.21.77-.37,1.18-.57a27.87,27.87,0,0,1-1-2.64,8.11,8.11,0,0,1,4.27-9.52A61.87,61.87,0,0,1,70.15,80a7.33,7.33,0,0,1,6.52,1,2.73,2.73,0,1,1-2.9,4.61,2.87,2.87,0,0,0-3-.11c-1.42.71-2.87,1.38-4.3,2.07Q63.66,88.94,65,91.78C65.14,92,65.27,92.28,65.43,92.62Z"/><path class="a" d="M20.9,73c.71-.18,1.4-.36,2.08-.55a.31.31,0,0,1,.36.1c.73.74,1.45,1.48,2.19,2.21a6.37,6.37,0,0,0,2.38,1.53A12.26,12.26,0,0,1,33.23,80a8,8,0,0,1,1.92,6.69,7.46,7.46,0,0,1-1.77,3.84c0-.49-.08-1-.12-1.4A16.65,16.65,0,0,0,32.79,86a7.13,7.13,0,0,0-2.36-3.72A14.14,14.14,0,0,0,26.23,80c-.38-.14-.76-.26-1.18-.4L25.48,81c.28.92.57,1.84.85,2.76.22.72.43,1.45.65,2.18s.51,1.72.76,2.58.44,1.46.67,2.19.47,1.57.71,2.35.41,1.31.61,2a.35.35,0,0,1,0,.2,7.8,7.8,0,0,1-2.31,3.8,5.34,5.34,0,0,1-4.4,1.33A3.74,3.74,0,0,1,20.48,99a5,5,0,0,1-1.08-4,3.79,3.79,0,0,1,1.7-2.51,6.22,6.22,0,0,1,3.09-1c.71,0,1.43,0,2.18,0Z"/><path class="a" d="M96.58,178A20.94,20.94,0,0,1,77.7,166.15L45.08,98.45a21,21,0,0,1,9.77-27.93L186.53,7.09a20.81,20.81,0,0,1,27,8.08,3.5,3.5,0,1,1-6,3.6,13.85,13.85,0,0,0-18-5.38L57.89,76.82a14,14,0,0,0-6.5,18.59L84,163.12a13.91,13.91,0,0,0,18.58,6.5l14.68-7.07a3.5,3.5,0,1,1,3,6.3l-14.68,7.07A20.77,20.77,0,0,1,96.58,178Z"/><path class="a" d="M145.57,184a21,21,0,0,1-6.93-1.19,20.75,20.75,0,0,1-11.94-10.67l-32.62-67.7a21,21,0,0,1,9.77-27.93L235.53,13.09a20.92,20.92,0,0,1,27.93,9.77l32.61,67.7a21,21,0,0,1-9.77,27.94L154.63,181.92A20.79,20.79,0,0,1,145.57,184Zm99-166a13.93,13.93,0,0,0-6,1.38L106.89,82.82a14,14,0,0,0-6.5,18.59L133,169.12a13.91,13.91,0,0,0,18.58,6.5l131.68-63.43a14,14,0,0,0,6.5-18.59L257.15,25.9A14,14,0,0,0,244.6,18Zm4.9,114.33h0Z"/><path class="a" d="M53.58,173A20.94,20.94,0,0,1,34.7,161.15L2.08,93.45a20.92,20.92,0,0,1,9.77-27.93L143.53,2.09a20.86,20.86,0,0,1,26.1,6.68,3.5,3.5,0,0,1-5.7,4.06,13.89,13.89,0,0,0-17.37-4.44L14.89,71.82a13.93,13.93,0,0,0-6.5,18.59L41,158.12a13.91,13.91,0,0,0,18.58,6.5l10.34-5a3.5,3.5,0,0,1,3,6.3l-10.34,5A20.77,20.77,0,0,1,53.58,173Z"/><path class="a" d="M173.11,82.82l-1.76-.07a14.79,14.79,0,0,1-6.07-1.34,5.54,5.54,0,0,1-3.13-6.48c1.39-6.09,5.92-9.4,12.68-7.6a23.17,23.17,0,0,1,7.62,3.75l1.43,1c0-.71,0-1.24,0-1.77.16-4,.84-7.77,3.16-11.1a9.45,9.45,0,0,1,13.23-2.12,5.73,5.73,0,0,1,2.08,6.54,17.57,17.57,0,0,1-3,5.68,1.8,1.8,0,0,0-.38.81l2-1c5.13-2.54,10.29-5,15.36-7.64a5,5,0,0,1,7,2.37c1.57,3.47,3.37,6.84,5,10.27a4.53,4.53,0,0,1-.71,5.23,1,1,0,0,0-.15,1.4q6.75,13.57,13.47,27.18c.43.87.86,1.73,1.28,2.61a4.71,4.71,0,0,1-2.28,6.7l-38.57,19.09L186,144c-3.14,1.56-5.64.74-7.2-2.42q-7.29-14.68-14.54-29.38a1.15,1.15,0,0,0-1.33-.82,4.38,4.38,0,0,1-4.49-2.6c-1.8-3.57-3.56-7.16-5.32-10.75a4.6,4.6,0,0,1,2.11-6.24q8.51-4.23,17-8.42l.86-.43Zm20.78,13.83-26.63,13.18.32.63q7.36,14.9,14.74,29.79c.47.94.81,1.05,1.8.56l24.66-12.2c.23-.12.46-.26.72-.41Zm30-14.86L197.29,95l15.63,31.59.93-.46,24.32-12c1.22-.61,1.3-.85.68-2.11L224.36,82.68Zm-37.88-1c-.25.1-.42.16-.58.24L157.23,95c-.93.47-1.06.87-.59,1.83l4.87,9.84c.63,1.27.89,1.35,2.18.71l27.65-13.68c.29-.14.56-.31.85-.47Zm9.55,10.8.8-.4L224.2,77.4c1.17-.58,1.27-.87.69-2.05-1.6-3.26-3.22-6.51-4.83-9.77-.57-1.14-.9-1.26-2.05-.69L190.27,78.61l-.86.48Zm-7.65-16.12c4.25-3.43,8.15-6.83,10.48-11.63a5.81,5.81,0,0,0,.47-2.19,1.72,1.72,0,0,0-.49-1.19c-1.63-1.65-5.47-1.73-7.22-.2a9.29,9.29,0,0,0-2.7,4.73A24.65,24.65,0,0,0,187.94,75.44Zm-4,2.08a5.32,5.32,0,0,0-.24-.49c-3.1-3.07-6.61-5.49-11-6.32-4-.77-6.17,1.51-6.95,5.22a1.66,1.66,0,0,0,.91,2,10.59,10.59,0,0,0,2.27.86,23.23,23.23,0,0,0,8,0C179.24,78.47,181.51,78,183.92,77.52Z"/><path class="a" d="M183.15,145.31a4.81,4.81,0,0,1-1.47-.23,5.92,5.92,0,0,1-3.3-3.23q-7.27-14.68-14.53-29.39c-.24-.47-.34-.58-.86-.54a4.9,4.9,0,0,1-5-2.88c-1.8-3.57-3.56-7.16-5.32-10.75A5.13,5.13,0,0,1,155,91.38l12.06-6,4.34-2.15h-.12a15.21,15.21,0,0,1-6.26-1.4,6.05,6.05,0,0,1-3.39-7,9.91,9.91,0,0,1,13.29-8,23.41,23.41,0,0,1,7.78,3.82l.64.47c0-.28,0-.54,0-.8.14-3.32.63-7.6,3.25-11.37a9.7,9.7,0,0,1,6.46-4,9.94,9.94,0,0,1,7.48,1.78,6.26,6.26,0,0,1,2.27,7.08,17,17,0,0,1-2.6,5.17l.53-.26,4.54-2.23c3.56-1.74,7.24-3.54,10.81-5.41a5.63,5.63,0,0,1,4.49-.4,5.51,5.51,0,0,1,3.24,3c1,2.28,2.18,4.56,3.29,6.77.58,1.16,1.17,2.32,1.74,3.49a5,5,0,0,1-.8,5.79c-.29.31-.28.4-.06.84q6,12.14,12,24.28l1.72,3.48c.34.67.67,1.35,1,2a5.18,5.18,0,0,1-2.51,7.36l-27,13.37-15.82,7.83-11.21,5.55A6.94,6.94,0,0,1,183.15,145.31Zm-20-34.4a1.62,1.62,0,0,1,1.6,1.11q7.26,14.7,14.54,29.38a5,5,0,0,0,2.72,2.73,5,5,0,0,0,3.81-.53q5.59-2.79,11.21-5.55l15.82-7.83,27-13.37a4.21,4.21,0,0,0,2-6c-.33-.67-.66-1.35-1-2l-1.71-3.47q-6-12.15-12-24.29a1.49,1.49,0,0,1,.25-2A4,4,0,0,0,228,74.4c-.57-1.17-1.15-2.32-1.73-3.48-1.12-2.22-2.27-4.51-3.31-6.81a4.57,4.57,0,0,0-2.66-2.48,4.69,4.69,0,0,0-3.7.35c-3.58,1.87-7.26,3.68-10.83,5.42l-4.54,2.23L198.38,71l.14-.94a2.24,2.24,0,0,1,.47-1,17.35,17.35,0,0,0,2.9-5.51,5.25,5.25,0,0,0-1.9-6A8.91,8.91,0,0,0,193.27,56a8.74,8.74,0,0,0-5.8,3.59c-2.47,3.56-2.94,7.66-3.07,10.84,0,.35,0,.7,0,1.1v1.64l-1.29-1-.93-.69a22.78,22.78,0,0,0-7.44-3.67,10,10,0,0,0-7.82.7A9.87,9.87,0,0,0,162.64,75,5,5,0,0,0,165.51,81a14.18,14.18,0,0,0,5.87,1.29l1.18,0,1,0,.14.85-.32.25-5.81,2.87-12,6a4.13,4.13,0,0,0-1.89,5.58q2.63,5.39,5.31,10.74a3.89,3.89,0,0,0,4,2.33Zm20.07,30.68c-.56,0-1-.36-1.34-1.12L166.59,109.6,194.12,96l16,32.42-.65.37-.51.29-24.66,12.2A2.6,2.6,0,0,1,183.21,141.59Zm-15.28-31.54,3.16,6.39L182.77,140c.32.67.35.72,1.13.34l24.66-12.2.29-.16L193.67,97.32Zm44.77,17.18L196.62,94.74l27.53-13.62,15.15,30.62c.74,1.5.56,2.05-.91,2.78ZM198,95.19l15.19,30.7,24.79-12.27c.94-.46.94-.46.46-1.44L223.69,82.46Zm-35.42,13c-.61,0-1-.43-1.48-1.38l-.75-1.51c-1.37-2.78-2.75-5.55-4.11-8.33-.6-1.21-.37-1.91.81-2.49l26.34-13,1.88-.93.39-.16.66-.27,6.57,13.27-.69.39q-.3.18-.6.33l-27.65,13.68A3.22,3.22,0,0,1,162.54,108.23ZM185.8,81.39l-.12.06-1.89.93-26.33,13c-.66.33-.73.42-.37,1.15q2.06,4.17,4.12,8.33l.75,1.52c.49,1,.49,1,1.51.49l27.65-13.69.42-.22Zm9.56,10.84-6.61-13.35.69-.38.61-.33,27.73-13.73c1.4-.69,2-.48,2.73.92l1.26,2.54,3.57,7.23c.7,1.43.51,2-.91,2.72Zm-5.29-12.94,5.74,11.6L224,77c.92-.45.92-.45.46-1.38-1.18-2.41-2.38-4.82-3.57-7.22l-1.26-2.54c-.44-.9-.48-.92-1.38-.47L190.49,79.06Zm-17.49.34a17.86,17.86,0,0,1-3.75-.37,11.48,11.48,0,0,1-2.38-.9,2.16,2.16,0,0,1-1.19-2.54c.92-4.37,3.6-6.36,7.54-5.61S180.35,73,184,76.68a1,1,0,0,1,.2.33,2.38,2.38,0,0,0,.14.28l.29.6L184,78l-2.21.42c-1.64.32-3.19.63-4.78.85A34,34,0,0,1,172.58,79.63Zm-1.36-8.57c-2.61,0-4.29,1.66-5,5a1.18,1.18,0,0,0,.64,1.43,10.44,10.44,0,0,0,2.16.82,22.66,22.66,0,0,0,7.84,0c1.57-.21,3.1-.51,4.73-.83l1.46-.28c-3.44-3.38-6.77-5.27-10.46-6A6.9,6.9,0,0,0,171.22,71.06Zm16.36,5.32-.13-.86A25.18,25.18,0,0,1,188,64.83a9.93,9.93,0,0,1,2.85-5c2-1.71,6.11-1.59,7.91.23a2.27,2.27,0,0,1,.63,1.57,6.26,6.26,0,0,1-.52,2.38c-2.38,4.91-6.38,8.38-10.61,11.8Zm7.07-16.74a4.93,4.93,0,0,0-3.15,1A8.6,8.6,0,0,0,189,65.1a23.59,23.59,0,0,0-.65,9.39c3.88-3.16,7.49-6.44,9.65-10.9a5.37,5.37,0,0,0,.43-2,1.3,1.3,0,0,0-.35-.81A4.91,4.91,0,0,0,194.65,59.64Z"/><path class="a" d="M187.58,76.38l-.13-.86A25.18,25.18,0,0,1,188,64.83a9.93,9.93,0,0,1,2.85-5c2-1.71,6.11-1.59,7.91.23a2.27,2.27,0,0,1,.63,1.57,6.26,6.26,0,0,1-.52,2.38c-2.38,4.91-6.38,8.38-10.61,11.8Zm7.07-16.74a4.93,4.93,0,0,0-3.15,1A8.6,8.6,0,0,0,189,65.1a23.59,23.59,0,0,0-.65,9.39c3.88-3.16,7.49-6.44,9.65-10.9a5.37,5.37,0,0,0,.43-2,1.3,1.3,0,0,0-.35-.81A4.91,4.91,0,0,0,194.65,59.64Z"/><path class="a" d="M172.58,79.63a17.86,17.86,0,0,1-3.75-.37,11.48,11.48,0,0,1-2.38-.9,2.16,2.16,0,0,1-1.19-2.54c.92-4.37,3.6-6.36,7.54-5.61S180.35,73,184,76.68a1,1,0,0,1,.2.33,2.38,2.38,0,0,0,.14.28l.29.6L184,78l-2.21.42c-1.64.32-3.19.63-4.78.85A34,34,0,0,1,172.58,79.63Zm-1.36-8.57c-2.61,0-4.29,1.66-5,5a1.18,1.18,0,0,0,.64,1.43,10.44,10.44,0,0,0,2.16.82,22.66,22.66,0,0,0,7.84,0c1.57-.21,3.1-.51,4.73-.83l1.46-.28c-3.44-3.38-6.77-5.27-10.46-6A6.9,6.9,0,0,0,171.22,71.06Z"/></svg>