<?xml version="1.0" encoding="UTF-8" standalone="no"?>
<!DOCTYPE svg PUBLIC "-//W3C//DTD SVG 20010904//EN"
              "http://www.w3.org/TR/2001/REC-SVG-20010904/DTD/svg10.dtd">

<svg xmlns="http://www.w3.org/2000/svg"
     width="29.9995mm" height="46.9603mm"
     viewBox="0 0 566 886">
  <path id="Selection"
        fill="white" stroke="white" stroke-width="1"
        d="M 246.00,331.00
           C 246.00,331.00 246.00,61.00 246.00,61.00
             246.01,56.91 245.73,52.57 248.51,49.21
             254.48,42.02 269.89,42.27 275.26,50.10
             277.27,53.03 276.99,56.62 277.00,60.00
             277.00,60.00 277.00,331.00 277.00,331.00
             277.00,331.00 246.00,331.00 246.00,331.00 Z
           M 333.00,353.00
           C 333.00,353.00 333.00,85.00 333.00,85.00
             333.01,79.61 332.77,75.26 337.13,71.28
             342.70,66.20 357.75,66.53 362.26,73.10
             364.27,76.03 363.99,79.62 364.00,83.00
             364.00,83.00 364.00,353.00 364.00,353.00
             364.00,353.00 333.00,353.00 333.00,353.00 Z
           M 166.00,359.00
           C 166.00,359.00 166.00,130.00 166.00,130.00
             166.01,126.53 165.73,123.09 167.74,120.04
             172.65,112.59 186.65,112.23 192.79,118.22
             197.06,122.40 196.99,126.50 197.00,132.00
             197.00,132.00 197.00,438.00 197.00,438.00
             190.93,435.13 189.30,431.73 184.91,427.00
             184.91,427.00 164.83,405.00 164.83,405.00
             164.83,405.00 125.17,362.00 125.17,362.00
             125.17,362.00 95.00,329.00 95.00,329.00
             95.00,329.00 74.91,307.00 74.91,307.00
             69.82,301.50 65.41,298.23 66.11,290.00
             67.11,278.14 80.20,271.61 89.00,276.85
             93.42,279.49 98.33,286.10 102.04,290.00
             102.04,290.00 129.58,320.00 129.58,320.00
             129.58,320.00 166.00,359.00 166.00,359.00 Z
           M 427.00,167.53
           C 434.75,166.25 444.73,166.28 448.11,175.00
             449.13,177.64 449.00,181.19 449.00,184.00
             449.00,184.00 449.00,267.00 449.00,267.00
             449.00,267.00 449.00,442.00 449.00,442.00
             449.00,444.09 449.12,447.06 448.40,449.00
             446.97,452.90 437.38,461.62 434.00,465.00
             434.00,465.00 390.00,509.00 390.00,509.00
             390.00,509.00 352.00,547.00 352.00,547.00
             349.43,549.57 341.33,558.80 338.00,558.80
             334.69,558.80 324.65,547.77 322.02,545.00
             320.58,543.49 318.20,541.24 318.20,539.00
             318.20,536.31 322.20,532.82 324.00,531.00
             324.00,531.00 395.00,460.00 395.00,460.00
             395.00,460.00 410.00,445.00 410.00,445.00
             412.41,442.59 416.23,439.18 417.40,436.00
             418.12,434.06 418.00,431.09 418.00,429.00
             418.00,429.00 418.00,230.00 418.00,230.00
             418.00,230.00 418.00,181.00 418.00,181.00
             418.04,173.21 419.10,170.07 427.00,167.53 Z
           M 323.00,471.00
           C 325.29,477.43 321.43,477.97 316.00,479.95
             308.90,482.52 296.51,484.55 289.00,483.83
             268.76,481.90 249.06,473.67 241.70,453.00
             239.07,445.63 238.91,438.69 239.00,431.00
             239.43,394.38 270.95,373.61 305.00,374.00
             330.08,374.30 349.57,392.47 348.99,418.00
             348.66,432.11 339.59,445.73 326.00,450.25
             319.14,452.53 315.13,453.01 308.00,453.00
             304.25,453.00 298.11,453.45 296.70,448.89
             295.82,446.05 298.87,439.83 300.00,437.00
             300.00,437.00 288.00,446.89 288.00,446.89
             282.75,450.39 266.83,458.53 265.26,446.89
             264.69,442.77 267.83,435.74 269.78,432.00
             276.59,418.97 297.29,395.19 314.00,404.00
             317.51,396.01 319.86,395.61 328.00,399.00
             328.00,399.00 313.99,434.00 313.99,434.00
             312.72,437.06 307.93,444.55 313.15,446.23
             315.30,446.93 319.91,445.55 322.00,444.73
             330.51,441.39 336.94,433.83 339.10,425.00
             343.35,407.61 334.49,391.17 318.00,384.45
             267.33,363.83 229.00,442.79 273.00,470.05
             279.02,473.78 286.06,475.35 293.00,476.15
             304.59,477.49 312.26,474.58 323.00,471.00 Z
           M 304.98,407.73
           C 295.58,409.92 288.07,422.66 284.23,431.00
             283.30,433.24 278.90,443.33 284.23,443.26
             286.53,443.23 290.23,440.24 291.96,438.70
             297.41,433.86 302.83,425.35 306.55,419.00
             309.17,414.53 311.85,409.47 304.98,407.73 Z
           M 335.00,577.00
           C 335.00,577.00 344.00,576.00 344.00,576.00
             344.00,576.00 344.00,599.00 344.00,599.00
             344.03,602.94 343.52,604.67 347.00,607.00
             345.45,611.43 342.68,611.99 340.00,608.00
             336.04,609.99 333.62,611.34 329.00,610.89
             319.96,610.01 315.85,598.22 320.74,591.10
             325.39,584.33 333.84,585.25 340.00,589.00
             340.00,589.00 340.00,579.00 340.00,579.00
             340.00,579.00 335.00,577.00 335.00,577.00 Z
           M 384.00,577.00
           C 384.00,577.00 392.00,576.00 392.00,576.00
             392.00,576.00 392.00,588.82 392.00,588.82
             397.33,585.76 403.53,584.51 408.89,588.82
             415.82,593.99 414.76,605.81 406.98,609.83
             403.19,611.78 398.98,610.74 395.00,610.40
             390.32,609.99 387.97,612.41 385.00,608.00
             388.72,605.51 387.99,603.15 388.00,599.00
             388.00,599.00 388.00,579.00 388.00,579.00
             388.00,579.00 384.00,577.00 384.00,577.00 Z
           M 119.00,579.00
           C 124.33,579.00 137.91,578.01 141.92,580.74
             147.20,584.30 147.40,592.50 141.92,595.86
             138.14,598.16 132.27,598.00 128.00,598.00
             128.00,598.00 128.00,607.00 128.00,607.00
             128.00,607.00 136.00,608.00 136.00,608.00
             136.00,608.00 136.00,610.00 136.00,610.00
             130.49,611.34 124.47,611.55 119.00,610.00
             119.00,610.00 119.00,608.00 119.00,608.00
             119.00,608.00 124.00,607.00 124.00,607.00
             124.00,607.00 124.00,582.00 124.00,582.00
             124.00,582.00 119.00,579.00 119.00,579.00 Z
           M 128.00,595.00
           C 131.29,595.00 135.90,595.30 138.81,593.55
             142.67,591.17 142.87,585.55 138.81,583.17
             136.28,581.65 131.03,582.00 128.00,582.00
             128.00,582.00 128.00,595.00 128.00,595.00 Z
           M 162.00,585.53
           C 166.96,584.73 171.86,584.95 175.87,588.42
             183.10,594.66 181.82,611.72 165.00,610.96
             149.85,610.28 146.71,590.45 162.00,585.53 Z
           M 246.00,606.00
           C 238.51,614.33 220.62,613.18 219.20,600.00
             217.68,585.83 233.71,581.51 241.79,587.85
             246.34,591.42 248.91,598.81 239.00,599.00
             239.00,599.00 223.00,599.00 223.00,599.00
             223.74,600.81 224.25,602.32 225.51,603.89
             231.99,611.98 238.35,604.62 246.00,606.00 Z
           M 263.00,591.00
           C 267.82,586.69 275.55,581.11 280.00,589.00
             275.04,590.18 273.57,589.02 271.00,589.83
             262.72,592.44 263.00,600.03 263.00,607.00
             263.00,607.00 274.00,608.00 274.00,608.00
             274.00,608.00 274.00,609.99 274.00,609.99
             270.50,610.85 257.33,612.07 254.59,609.99
             253.38,609.05 253.43,608.23 253.00,607.00
             253.00,607.00 259.00,607.00 259.00,607.00
             259.00,607.00 259.00,589.00 259.00,589.00
             259.00,589.00 254.00,589.00 254.00,589.00
             254.00,589.00 254.00,586.00 254.00,586.00
             254.00,586.00 263.00,586.00 263.00,586.00
             263.00,586.00 263.00,591.00 263.00,591.00 Z
           M 312.00,605.00
           C 311.53,606.41 311.58,607.11 310.41,608.30
             307.12,611.64 289.25,614.57 286.07,602.00
             282.83,589.17 297.49,579.97 307.89,587.70
             312.19,590.89 315.92,598.83 306.00,599.00
             306.00,599.00 290.00,599.00 290.00,599.00
             293.01,613.09 303.80,606.29 312.00,605.00 Z
           M 183.00,586.00
           C 187.44,586.00 190.31,585.28 194.00,588.00
             194.00,588.00 189.00,589.00 189.00,589.00
             189.00,589.00 194.00,605.00 194.00,605.00
             194.00,605.00 198.00,592.00 198.00,592.00
             203.22,594.87 203.24,599.63 205.00,605.00
             205.00,605.00 210.00,589.00 210.00,589.00
             210.00,589.00 205.00,586.00 205.00,586.00
             205.00,586.00 216.00,586.00 216.00,586.00
             211.50,595.89 211.96,596.37 208.83,605.98
             208.26,607.73 206.98,611.21 204.46,609.83
             202.66,608.85 200.13,599.58 199.00,597.00
             199.00,597.00 195.00,611.00 195.00,611.00
             188.75,608.87 187.88,598.73 185.77,593.04
             185.77,593.04 183.00,586.00 183.00,586.00 Z
           M 418.00,586.00
           C 418.00,586.00 429.00,586.00 429.00,586.00
             429.00,586.00 425.00,589.00 425.00,589.00
             425.00,589.00 433.00,604.00 433.00,604.00
             433.00,604.00 440.00,589.00 440.00,589.00
             440.00,589.00 436.00,586.00 436.00,586.00
             436.00,586.00 447.00,586.00 447.00,586.00
             447.00,586.00 442.26,594.01 442.26,594.01
             442.26,594.01 430.00,618.00 430.00,618.00
             430.00,618.00 434.00,618.00 434.00,618.00
             434.00,618.00 434.00,621.00 434.00,621.00
             434.00,621.00 418.00,621.00 418.00,621.00
             418.00,621.00 427.03,614.85 427.03,614.85
             427.03,614.85 429.22,609.00 429.22,609.00
             429.22,609.00 421.67,592.13 421.67,592.13
             421.67,592.13 418.00,586.00 418.00,586.00 Z
           M 164.00,588.45
           C 150.39,593.77 156.72,610.90 169.00,607.57
             179.50,604.72 178.19,587.02 164.00,588.45 Z
           M 241.00,596.00
           C 239.29,585.51 226.37,584.97 224.00,596.00
             224.00,596.00 241.00,596.00 241.00,596.00 Z
           M 308.00,596.00
           C 305.66,585.12 295.08,585.79 290.00,595.00
             290.00,595.00 308.00,596.00 308.00,596.00 Z
           M 329.02,589.43
           C 319.92,593.20 321.51,605.69 330.00,606.85
             341.07,608.37 342.28,594.90 336.77,590.74
             334.27,588.85 331.89,589.07 329.02,589.43 Z
           M 398.02,589.43
           C 388.78,593.26 390.59,606.48 399.00,607.76
             410.25,609.48 411.32,594.92 405.77,590.74
             403.27,588.85 400.89,589.07 398.02,589.43 Z
           M 265.00,670.00
           C 263.93,676.85 253.32,699.59 249.74,707.00
             248.13,710.34 242.81,720.48 243.78,723.85
             245.46,729.66 256.61,724.84 260.00,723.21
             272.21,717.36 279.60,706.50 280.68,693.00
             280.96,689.38 279.78,683.47 278.64,680.00
             272.76,662.00 254.67,650.22 236.00,650.00
             210.70,649.71 191.24,661.03 179.75,684.00
             175.59,692.32 173.11,699.57 173.00,709.00
             172.90,717.59 173.63,725.05 177.32,733.00
             190.63,761.61 229.65,764.19 255.00,752.22
             262.24,748.80 269.30,744.88 274.83,738.96
             274.83,738.96 284.51,726.64 284.51,726.64
             286.99,724.81 289.92,725.95 290.04,729.11
             290.17,732.34 285.85,738.35 283.96,741.00
             275.21,753.24 262.95,759.78 249.00,764.33
             222.16,773.08 182.97,769.90 164.53,746.00
             160.96,741.37 158.47,735.53 156.67,730.00
             154.99,724.84 154.07,719.42 154.00,714.00
             153.87,702.73 155.65,692.29 160.49,682.00
             163.66,675.25 167.79,670.25 173.00,665.00
             188.82,649.08 208.81,641.97 231.00,641.04
             235.93,640.83 237.44,641.35 242.00,641.84
             267.15,644.53 288.16,659.28 290.83,686.00
             291.37,691.41 290.87,697.69 289.71,703.00
             285.64,721.62 264.02,733.78 246.00,734.00
             240.82,734.06 228.73,735.51 226.36,729.89
             224.87,726.37 229.39,717.46 231.00,714.00
             225.95,718.27 221.64,722.48 216.00,726.14
             210.07,729.98 203.26,734.01 196.00,733.97
             192.00,733.95 188.68,733.28 187.43,728.96
             185.37,721.84 190.95,711.82 194.70,706.00
             203.30,692.63 222.73,673.52 240.00,674.13
             242.85,674.23 245.33,675.13 248.00,676.00
             252.31,666.16 255.41,667.23 265.00,670.00 Z
           M 28.00,659.00
           C 28.00,659.00 65.00,659.00 65.00,659.00
             66.70,659.01 73.63,658.81 71.60,662.49
             70.22,665.01 65.44,663.48 62.57,669.05
             60.28,673.50 60.90,687.47 61.00,693.00
             61.05,695.32 61.01,697.80 62.60,699.69
             64.87,702.38 68.82,701.99 72.00,702.00
             72.00,702.00 96.00,702.00 96.00,702.00
             105.51,701.82 104.00,697.93 104.00,686.00
             104.00,674.92 106.80,664.74 92.00,664.00
             92.00,664.00 92.00,659.00 92.00,659.00
             92.00,659.00 130.00,659.00 130.00,659.00
             131.60,659.03 137.81,659.19 135.83,662.47
             134.42,664.83 129.27,663.86 126.65,669.10
             124.37,673.67 125.00,684.60 125.00,690.00
             125.00,690.00 125.00,734.00 125.00,734.00
             125.01,738.10 124.98,744.39 127.72,747.70
             131.56,752.32 137.73,748.78 136.00,757.00
             136.00,757.00 117.00,756.00 117.00,756.00
             117.00,756.00 93.00,757.00 93.00,757.00
             93.00,757.00 93.00,751.00 93.00,751.00
             101.35,750.22 103.88,747.30 104.00,739.00
             104.00,739.00 104.00,725.00 104.00,725.00
             104.00,721.49 104.69,714.07 102.40,711.43
             100.30,709.01 96.93,709.04 94.00,709.00
             94.00,709.00 71.00,709.00 71.00,709.00
             68.07,709.04 64.70,709.01 62.60,711.43
             60.69,713.62 61.01,717.26 61.00,720.00
             61.00,720.00 61.00,737.00 61.00,737.00
             61.05,740.88 61.20,745.69 64.30,748.49
             68.85,752.61 74.72,748.84 73.00,757.00
             73.00,757.00 51.00,756.00 51.00,756.00
             51.00,756.00 29.00,757.00 29.00,757.00
             27.37,749.28 32.28,752.57 36.77,748.57
             39.84,745.84 39.94,742.79 40.00,739.00
             40.00,739.00 40.00,678.00 40.00,678.00
             39.99,674.21 40.33,670.29 37.57,667.28
             33.16,662.46 29.31,666.45 28.00,659.00 Z
           M 308.00,752.00
           C 320.77,749.99 320.98,742.02 321.00,731.00
             321.00,731.00 321.00,680.00 321.00,680.00
             320.99,674.51 321.19,670.20 315.96,666.85
             312.69,664.76 308.55,665.19 307.72,662.63
             306.57,659.10 311.98,659.02 314.00,659.17
             314.00,659.17 330.00,660.03 330.00,660.03
             332.60,659.97 338.64,658.90 340.51,660.03
             341.91,660.93 346.05,668.10 347.35,670.00
             347.35,670.00 365.13,692.00 365.13,692.00
             365.13,692.00 392.00,723.00 392.00,723.00
             392.00,723.00 392.00,692.00 392.00,692.00
             392.00,685.96 392.44,678.77 390.70,673.00
             386.98,660.70 377.93,670.16 377.00,659.00
             377.00,659.00 401.00,660.00 401.00,660.00
             403.77,659.96 412.27,658.15 413.68,660.56
             414.71,662.31 413.24,663.69 411.84,664.51
             411.84,664.51 408.04,666.16 408.04,666.16
             403.33,668.90 402.53,673.04 401.95,678.00
             399.96,695.03 401.04,729.18 401.00,748.00
             400.99,752.01 401.52,756.37 396.95,758.01
             395.41,758.67 393.79,758.73 392.32,758.01
             390.32,756.86 387.96,752.93 386.57,751.00
             386.57,751.00 376.40,738.00 376.40,738.00
             376.40,738.00 347.26,702.00 347.26,702.00
             341.85,695.35 337.03,688.05 330.00,683.00
             330.00,683.00 330.00,728.00 330.00,728.00
             330.05,732.07 330.97,743.66 333.09,746.79
             335.67,750.62 340.76,751.40 345.00,752.00
             345.00,752.00 345.00,757.00 345.00,757.00
             345.00,757.00 308.00,757.00 308.00,757.00
             308.00,757.00 308.00,752.00 308.00,752.00 Z
           M 430.00,757.00
           C 428.31,748.96 434.18,752.24 438.77,748.44
             441.87,745.88 441.95,742.68 442.00,739.00
             442.00,739.00 442.00,679.00 442.00,679.00
             441.99,675.21 442.33,671.30 439.57,668.28
             436.82,665.26 430.22,664.66 432.17,661.54
             433.57,659.30 445.22,659.00 448.00,659.00
             471.46,658.96 504.69,655.46 522.83,673.18
             542.46,692.36 539.76,727.53 519.00,744.67
             507.91,753.83 491.06,756.98 477.00,757.00
             464.61,757.02 440.64,754.41 430.00,757.00 Z
           M 470.00,665.30
           C 467.68,665.83 465.59,666.10 464.17,668.30
             462.22,671.33 463.00,687.51 463.00,692.00
             463.00,692.00 463.00,732.00 463.00,732.00
             463.05,736.37 463.52,742.41 466.43,745.87
             470.54,750.76 479.16,750.55 485.00,749.70
             500.76,747.42 509.58,732.70 511.85,718.00
             511.85,718.00 511.85,703.00 511.85,703.00
             511.77,683.77 501.17,669.86 482.00,666.26
             477.34,665.39 474.78,664.86 470.00,665.30 Z
           M 236.98,680.82
           C 226.40,682.40 215.14,698.70 210.90,708.00
             209.72,710.60 204.85,721.98 210.23,722.48
             213.17,722.76 217.81,718.98 219.99,717.19
             226.91,711.52 233.83,701.74 238.40,694.00
             241.27,689.12 244.68,682.98 236.98,680.82 Z
           M 325.46,784.13
           C 330.67,783.06 330.11,787.76 328.41,788.92
             326.49,790.24 322.07,788.31 325.46,784.13 Z
           M 56.00,786.00
           C 56.00,786.00 73.00,787.00 73.00,787.00
             71.03,787.85 69.39,788.32 68.17,790.27
             66.38,793.14 66.22,801.91 69.31,803.98
             71.79,805.62 83.47,805.00 87.00,805.00
             87.00,795.20 88.98,793.06 82.00,786.00
             82.00,786.00 98.00,787.00 98.00,787.00
             98.00,787.00 94.02,790.22 94.02,790.22
             94.02,790.22 93.00,812.00 93.00,812.00
             93.00,812.00 93.59,821.78 93.59,821.78
             93.59,821.78 98.00,827.00 98.00,827.00
             98.00,827.00 82.00,827.00 82.00,827.00
             82.00,827.00 82.00,825.00 82.00,825.00
             83.36,824.56 84.28,824.56 85.40,823.41
             87.83,820.92 87.00,810.66 87.00,807.00
             83.47,807.00 71.79,806.38 69.31,808.02
             66.09,810.17 66.51,818.84 68.17,821.87
             69.25,823.84 71.41,825.42 73.00,827.00
             73.00,827.00 57.00,827.00 57.00,827.00
             57.00,827.00 57.00,825.00 57.00,825.00
             57.00,825.00 60.83,822.69 60.83,822.69
             60.83,822.69 62.00,814.00 62.00,814.00
             62.00,814.00 62.00,798.00 62.00,798.00
             62.00,798.00 61.40,792.04 61.40,792.04
             61.40,792.04 56.00,786.00 56.00,786.00 Z
           M 274.00,786.00
           C 274.00,786.00 284.91,787.02 284.91,787.02
             284.91,787.02 292.71,796.00 292.71,796.00
             292.71,796.00 309.00,816.00 309.00,816.00
             309.00,810.24 309.90,795.54 307.07,791.13
             305.62,788.88 303.08,787.59 301.00,786.00
             301.00,786.00 317.00,787.00 317.00,787.00
             317.00,787.00 311.60,792.05 311.60,792.05
             311.60,792.05 311.00,803.00 311.00,803.00
             311.00,803.00 311.00,827.00 311.00,827.00
             301.83,822.45 292.08,801.57 283.00,794.00
             283.00,794.00 283.89,819.96 283.89,819.96
             283.89,819.96 290.00,827.00 290.00,827.00
             290.00,827.00 275.00,827.00 275.00,827.00
             275.00,827.00 280.26,820.89 280.26,820.89
             280.26,820.89 281.00,813.00 281.00,813.00
             281.00,813.00 279.83,792.10 279.83,792.10
             279.83,792.10 274.00,786.00 274.00,786.00 Z
           M 409.00,786.00
           C 417.36,786.00 429.66,784.80 437.00,788.67
             449.64,795.33 450.63,815.10 438.96,822.87
             430.87,828.26 418.41,827.00 409.00,827.00
             409.00,827.00 409.00,825.00 409.00,825.00
             409.00,825.00 412.83,822.69 412.83,822.69
             412.83,822.69 414.00,814.00 414.00,814.00
             414.00,814.00 414.00,798.00 414.00,798.00
             414.00,798.00 413.41,792.04 413.41,792.04
             413.41,792.04 409.00,786.00 409.00,786.00 Z
           M 421.31,787.60
           C 418.32,790.12 419.01,792.28 419.00,796.00
             419.00,796.00 419.00,815.00 419.00,815.00
             419.03,817.54 419.01,821.44 420.85,823.40
             422.51,825.16 425.76,825.08 428.00,824.96
             429.82,824.86 431.33,824.68 432.98,823.83
             446.41,816.90 442.34,782.73 421.31,787.60 Z
           M 247.00,831.00
           C 238.32,835.92 229.31,837.88 220.00,832.95
             206.28,825.69 205.53,805.43 216.10,795.18
             228.92,782.77 255.45,786.35 253.47,808.00
             252.48,818.89 240.68,828.47 235.00,819.00
             233.41,819.95 230.69,821.75 229.00,822.24
             223.78,823.74 221.11,819.73 221.09,815.00
             221.05,808.64 226.81,799.37 234.00,800.42
             236.20,800.74 237.29,801.80 239.00,803.00
             239.00,803.00 243.00,800.00 243.00,800.00
             243.00,800.00 238.00,821.00 238.00,821.00
             258.64,820.28 253.64,787.22 233.00,789.34
             213.98,791.29 205.80,817.24 220.04,829.78
             224.86,834.02 231.86,834.88 238.00,833.47
             241.21,832.74 243.66,830.99 247.00,831.00 Z
           M 117.00,810.00
           C 120.48,807.76 122.18,804.93 118.57,801.45
             115.52,798.50 112.87,799.70 111.17,803.05
             110.55,804.27 109.59,807.22 107.56,805.83
             105.22,804.23 107.54,800.99 109.15,799.85
             114.09,796.36 122.98,797.16 125.20,804.02
             128.55,814.37 121.16,818.42 130.00,826.00
             125.78,828.67 123.74,828.02 121.00,824.00
             118.79,825.37 116.57,826.84 114.00,827.43
             99.99,830.65 102.84,808.69 116.00,812.00
             114.28,813.27 112.81,814.23 111.55,816.04
             105.40,824.93 120.20,829.06 120.93,817.00
             121.08,814.58 120.57,812.33 120.00,810.00
             120.00,810.00 117.00,810.00 117.00,810.00 Z
           M 187.00,820.00
           C 184.61,827.93 175.54,830.03 169.10,825.30
             165.27,822.48 163.05,816.69 163.39,812.00
             164.47,796.75 180.04,794.78 185.26,802.13
             187.16,804.79 186.97,807.91 187.00,811.00
             187.00,811.00 169.00,811.00 169.00,811.00
             169.14,817.19 171.71,826.46 179.99,824.55
             182.72,823.92 184.87,821.70 187.00,820.00 Z
           M 182.00,810.00
           C 181.98,807.57 182.13,804.36 180.83,802.23
             178.42,798.30 173.35,798.77 170.74,802.23
             168.98,804.54 169.07,807.26 169.00,810.00
             169.00,810.00 182.00,810.00 182.00,810.00 Z
           M 320.00,799.00
           C 320.00,799.00 330.00,798.00 330.00,798.00
             330.00,798.00 330.58,821.91 330.58,821.91
             330.58,821.91 334.00,827.00 334.00,827.00
             334.00,827.00 321.00,827.00 321.00,827.00
             322.07,825.31 323.73,823.75 324.34,821.87
             325.37,819.32 325.29,806.62 324.34,804.10
             323.40,801.97 321.62,800.54 320.00,799.00 Z
           M 362.00,820.00
           C 357.00,830.30 344.00,830.49 339.72,820.00
             336.24,811.46 339.96,799.66 350.00,798.21
             357.78,797.10 361.34,802.42 360.16,805.70
             359.47,807.62 357.30,807.98 356.02,806.40
             354.93,805.05 355.22,796.25 348.13,801.33
             348.13,801.33 346.51,803.06 346.51,803.06
             341.98,808.93 343.32,823.20 352.00,824.63
             355.67,825.23 359.15,821.94 362.00,820.00 Z
           M 389.00,820.00
           C 386.29,827.55 377.55,830.34 371.04,825.49
             366.65,822.21 364.66,816.35 365.20,811.00
             366.67,796.23 382.04,795.20 386.99,802.21
             388.92,804.94 388.92,807.82 389.00,811.00
             385.49,811.00 373.86,810.11 371.69,812.60
             368.46,816.31 374.18,823.64 378.02,824.55
             382.32,825.57 385.72,822.23 389.00,820.00 Z
           M 377.00,799.58
           C 366.46,803.22 369.79,812.96 380.85,809.69
             385.69,808.26 384.27,800.30 377.00,799.58 Z
           M 465.00,810.00
           C 468.48,807.76 470.18,804.93 466.57,801.45
             463.52,798.50 460.87,799.70 459.17,803.05
             458.55,804.27 457.59,807.22 455.56,805.83
             453.22,804.23 455.54,800.99 457.15,799.85
             462.09,796.36 470.98,797.16 473.20,804.02
             475.93,812.46 470.58,819.30 478.00,825.80
             472.09,829.72 471.98,825.37 467.72,825.80
             465.43,825.72 458.05,830.78 453.87,824.77
             449.39,818.35 456.86,810.73 464.00,812.00
             461.99,813.49 460.20,814.67 459.03,817.02
             455.34,824.42 465.31,828.01 468.40,819.98
             469.22,817.84 469.00,812.50 469.00,810.00
             469.00,810.00 465.00,810.00 465.00,810.00 Z
           M 131.00,799.00
           C 131.00,799.00 144.00,800.00 144.00,800.00
             144.00,800.00 140.00,801.00 140.00,801.00
             140.00,801.00 147.00,819.00 147.00,819.00
             147.00,819.00 149.00,819.00 149.00,819.00
             151.69,807.55 156.99,806.43 151.00,799.00
             151.00,799.00 161.00,800.00 161.00,800.00
             154.02,805.96 150.71,818.59 147.00,827.00
             147.00,827.00 145.00,827.00 145.00,827.00
             140.67,816.18 138.60,808.12 131.00,799.00 Z
           M 479.00,799.00
           C 479.00,799.00 491.00,799.00 491.00,799.00
             491.00,799.00 489.48,802.43 489.48,802.43
             489.48,802.43 495.00,819.00 495.00,819.00
             495.00,819.00 497.00,819.00 497.00,819.00
             500.05,807.69 504.74,806.12 499.00,799.00
             499.00,799.00 509.00,800.00 509.00,800.00
             501.48,806.41 498.00,821.89 493.22,831.00
             491.43,834.41 487.93,840.68 483.15,839.16
             480.08,838.18 479.79,834.46 482.30,834.32
             483.93,834.23 486.61,836.15 488.00,837.00
             489.31,834.27 492.16,829.82 492.23,827.00
             492.29,824.59 490.34,820.35 489.40,818.00
             485.33,807.82 486.22,807.58 479.00,799.00 Z
           M 233.00,801.58
           C 227.91,803.46 225.99,807.80 225.30,813.00
             224.87,816.28 225.42,820.75 230.00,819.34
             234.82,817.87 242.31,802.61 233.00,801.58 Z" />
</svg>
