<?xml version="1.0" encoding="utf-8"?>
<!-- Generator: Adobe Illustrator 25.0.0, SVG Export Plug-In . SVG Version: 6.00 Build 0)  -->
<svg version="1.1" id="Layer_1" xmlns="http://www.w3.org/2000/svg" xmlns:xlink="http://www.w3.org/1999/xlink" x="0px" y="0px"
	 viewBox="0 0 16 16" style="enable-background:new 0 0 16 16;" xml:space="preserve">
<style type="text/css">
	.st0{fill:url(#SVGID_1_);}
	.st1{fill:url(#SVGID_2_);}
	.st2{opacity:0.2;fill:#FFFFFF;}
</style>
<g>
	<linearGradient id="SVGID_1_" gradientUnits="userSpaceOnUse" x1="6.0479" y1="0.1711" x2="9.9699" y2="15.9004">
		<stop  offset="0" style="stop-color:#F1A88E"/>
		<stop  offset="0.4877" style="stop-color:#E04006"/>
		<stop  offset="1" style="stop-color:#9D340F"/>
	</linearGradient>
	<path class="st0" d="M8,16c-4.4,0-8-3.6-8-8s3.6-8,8-8s8,3.6,8,8S12.4,16,8,16z M8,2C4.7,2,2,4.7,2,8s2.7,6,6,6s6-2.7,6-6
		S11.3,2,8,2z"/>
</g>
<g>
	<linearGradient id="SVGID_2_" gradientUnits="userSpaceOnUse" x1="5.9305" y1="0.2004" x2="9.8525" y2="15.9297">
		<stop  offset="0" style="stop-color:#F1A88E"/>
		<stop  offset="0.4877" style="stop-color:#E04006"/>
		<stop  offset="1" style="stop-color:#9D340F"/>
	</linearGradient>
	<path class="st1" d="M9,13H7v-2h2V13z M9,10H7V4h2V10z"/>
</g>
<rect x="8.4" y="4.2" class="st2" width="0.6" height="5.7"/>
<rect x="8.4" y="11.2" class="st2" width="0.6" height="1.7"/>
</svg>
